<?xml version="1.0" encoding="utf-8"?>
<!-- Generator: Adobe Illustrator 26.0.3, SVG Export Plug-In . SVG Version: 6.00 Build 0)  -->
<svg version="1.0" id="Layer_1" xmlns="http://www.w3.org/2000/svg" xmlns:xlink="http://www.w3.org/1999/xlink" x="0px" y="0px"
	 viewBox="0 0 241.5 160.6" style="enable-background:new 0 0 241.5 160.6;" xml:space="preserve">
<style type="text/css">
	.st0{fill:#BA8A63;}
</style>
<path class="st0" d="M105.5,52.9c3-1.1,6.2-1.5,9.3-1c-0.1,1.9-0.2,3.8-0.3,5.8c-2.2-0.5-4.4-0.3-6.6,0.3c-2.3,0.7-4.3,2.3-5.6,4.4
	c-1.5,2.7-2.1,5.8-1.6,8.8c0.3,2.6,1.5,5.1,3.5,6.9c2,1.7,4.4,2.6,7,2.7c1.3,0.1,2.6,0,3.8-0.4v5.8c-1.6,0.3-3.1,0.4-4.7,0.3
	c-3.7-0.1-7.2-1.4-10.1-3.8c-2.8-2.4-4.6-5.6-5.3-9.2c-1-4.6-0.3-9.3,1.9-13.4C98.9,56.8,101.9,54.3,105.5,52.9 M39.5,52h2.7
	c4,11.4,8,22.9,12.1,34.3h-5.8c-0.9-2.2-2.2-4.2-3.9-5.9c-1.3-1.1-3-1.6-4.7-1.4c-1.4,0.2-2.8,0.9-3.7,2c-1.3,1.6-2.4,3.4-3.2,5.4
	h-5.4l0,0C31.5,74.9,35.5,63.5,39.5,52 M40.7,64.3c-1.6,4.6-3.2,9.2-4.8,13.7c1.5-0.6,3.1-0.9,4.7-0.9c1.6,0,3.3,0.3,4.8,0.9
	L40.7,64.3 M64.4,52h6.8c3,0,6,0.8,8.5,2.4c2.1,1.5,3.6,3.7,4.2,6.2c0.6,2.3,0.6,4.6,0.1,6.9c-0.7,2.9-2.5,5.4-4.9,7.2
	c2.1,3.9,4.2,7.7,6.3,11.6h-6.6c-1.7-3.1-3.3-6.3-4.9-9.4c-1.2,0.3-2.5,0.4-3.7,0.3v9.1h-5.8L64.4,52 M70.2,57.5v14.3
	c1.1,0.1,2.3,0,3.4-0.3c1.6-0.4,3-1.3,3.9-2.7c1-1.9,1.4-4,0.9-6.1c-0.4-1.9-1.6-3.6-3.4-4.4C73.4,57.6,71.8,57.4,70.2,57.5
	 M135.3,52c0.9,0,1.8,0,2.8,0c4,11.4,8,22.8,12,34.3h-5.8c-0.9-2.2-2.3-4.2-4-5.9c-1.3-1.1-2.9-1.6-4.6-1.4
	c-1.5,0.2-2.9,0.9-3.9,2.1c-1.3,1.6-2.4,3.4-3.2,5.3h-5.4C127.2,74.8,131.2,63.4,135.3,52 M136.5,64.3L131.7,78
	c0.7-0.3,1.4-0.5,2.1-0.6c2.5-0.5,5-0.3,7.4,0.6L136.5,64.3 M160.2,52h2.7L176.1,72V52h5.4v34.3h-2.4c-4.5-6.7-9-13.5-13.5-20.2
	c0,6.8,0,13.5,0,20.2h-5.4V52 M195.5,52h17.6v5.2h-11.8c0,3.3,0,6.6,0,9.9h9.9v5.2h-9.9c0,2.9,0,5.8,0,8.7H214v5.3h-18.5V52
	 M90.4,104.3c0.1-2.2,1.8-4,4-4.2c1.7-0.2,3.5,0.6,4.3,2.2c-0.6,0.3-1.1,0.5-1.7,0.8c-0.7-1.2-2.2-1.6-3.4-0.9c0,0-0.1,0.1-0.1,0.1
	c-1,0.7-1.4,1.9-1.1,3c0.3,1.2,1.4,2.1,2.7,2c0.9,0,1.7-0.7,2-1.6h-3l0.8-1.6H99c0.1,1.2-0.2,2.4-1,3.4c-1.6,1.8-4.4,1.9-6.2,0.3
	C90.9,106.9,90.3,105.6,90.4,104.3 M138.3,101.9c1.4-1.8,4-2.3,6-1.1c0.6,0.4,1.1,0.9,1.4,1.5c-0.6,0.3-1.1,0.6-1.7,0.8
	c-0.7-1.2-2.2-1.6-3.4-0.9c-0.2,0.1-0.3,0.2-0.5,0.4c-1.1,1.1-1.1,2.8,0,3.9c0.1,0.1,0.3,0.3,0.5,0.4c1.1,0.7,2.6,0.4,3.3-0.7
	c0.1-0.2,0.2-0.3,0.3-0.5h-3c0.2-0.5,0.5-1,0.8-1.6h4.2c0.2,1.4-0.3,2.8-1.3,3.8c-1.8,1.7-4.6,1.6-6.2-0.2
	C137,106,136.9,103.5,138.3,101.9 M171.2,101c1-1,2.5-1.2,3.8-0.7c0.7,0.3,1.2,0.9,1.4,1.6c-0.5,0.2-1,0.5-1.6,0.8
	c-0.2-0.8-1-1.2-1.8-1c-0.2,0.1-0.4,0.2-0.5,0.3c-0.3,0.3-0.3,0.8,0,1.1c0,0,0.1,0.1,0.2,0.1c0.5,0.2,1,0.3,1.6,0.4
	c0.9,0.1,1.7,0.7,2.2,1.6c0.4,1,0.1,2.2-0.7,2.9c-1.7,1.4-4.8,0.8-5.5-1.4c0.5-0.3,1-0.6,1.5-0.8c0.3,1,1.3,1.5,2.3,1.2
	c0.1,0,0.2-0.1,0.3-0.1c0.4-0.2,0.5-0.6,0.4-1c0,0,0-0.1-0.1-0.1c-0.3-0.4-0.9-0.4-1.4-0.5c-0.8,0-1.6-0.4-2.2-1
	C170.3,103.4,170.3,102,171.2,101 M69.7,100.3H72v6.8h3.3c-0.2,0.6-0.3,1.1-0.5,1.7h-5.2c0.2-0.4,0.5-0.7,0.4-1.2v-6.1
	C70.2,101.1,69.9,100.7,69.7,100.3 M76.4,100.3h5v1.7h-3.2v1.7h2.9c-0.2,0.5-0.3,1.1-0.5,1.6h-2.5c0,0.6,0,1.2,0,1.8
	c1.1,0,2.1,0,3.2,0v1.7h-5L76.4,100.3 M84.5,100.3h2.6l3.4,8.5h-2l-0.7-1.7c-1.1,0-2.2,0-3.3,0c-0.2,0.6-0.4,1.1-0.7,1.7H82
	c1-2.5,2-5,3-7.4L84.5,100.3 M85.1,105.5h2.1l-1-2.8C85.9,103.7,85.5,104.6,85.1,105.5 M100,100.3h1.9v5c0,0.5,0.1,0.9,0.3,1.3
	c0.5,0.6,1.3,0.7,1.9,0.4c0.5-0.3,0.8-0.9,0.8-1.5c0-1.8,0-3.5,0-5.2c0.6,0,1.2,0,1.8,0c0,1.8,0,3.5,0,5.2c0,1-0.4,2-1.2,2.7
	c-1.1,0.7-2.5,0.9-3.8,0.3c-1.1-0.6-1.8-1.7-1.8-2.9C100,103.9,100,102.1,100,100.3 M108.3,100.3h5c0,0.6,0,1.1,0,1.7h-3.2
	c0,0.6,0,1.1,0,1.7h2.9c-0.2,0.5-0.3,1.1-0.5,1.6h-2.4v1.8h3.2c0,0.6,0,1.1,0,1.7h-5L108.3,100.3 M125,100.3h2.3c0,2.3,0,4.6,0,6.8
	c1.1,0,2.2,0,3.4,0c-0.2,0.6-0.3,1.1-0.5,1.7H125c0.2-0.4,0.4-0.8,0.4-1.2v-6.1C125.4,101.1,125.2,100.7,125,100.3 M131.6,100.3h5
	v1.7h-3.2v1.7h2.9c-0.1,0.5-0.3,1.1-0.5,1.6h-2.4v1.8h3.2v1.7c-1.7,0-3.4,0-5,0L131.6,100.3 M147.1,100.3h5v1.7h-3.2v1.7h2.9
	c-0.1,0.5-0.3,1.1-0.4,1.6h-2.4c0,0.6,0,1.2,0,1.8c1.1,0,2.1,0,3.2,0v1.7h-5L147.1,100.3 M153,100.3c0.8,0,1.5,0,2.3,0
	c1.3,1.8,2.6,3.7,3.9,5.6c0-1.8,0-3.7,0-5.6c0.6,0,1.2,0,1.8,0c0,2.8,0,5.7,0,8.5c-0.6,0-1.2,0-1.9,0c-1.3-1.8-2.7-3.7-4-5.5v5.5
	h-1.8c0-2.5,0-5,0-7.4C153.3,101,153.1,100.7,153,100.3 M162.4,100.3c1.2,0,2.4,0,3.6,0.1c1.7,0.3,3,1.5,3.4,3.1
	c0.5,1.7-0.2,3.5-1.6,4.5c-0.7,0.5-1.6,0.8-2.4,0.8h-3C162.4,106,162.4,103.1,162.4,100.3 M164.3,107.1c0.9,0.2,1.8,0,2.6-0.6
	c1.1-0.9,1.2-2.5,0.3-3.6c-0.1-0.1-0.2-0.3-0.4-0.4c-0.7-0.5-1.6-0.6-2.5-0.5L164.3,107.1 M117.1,102.6c1.1-0.3,2.2,0.2,2.5,1.3
	c0.3,1.1-0.2,2.2-1.3,2.5c-1.1,0.3-2.2-0.2-2.5-1.3c0-0.1,0-0.1,0-0.2C115.6,103.9,116.2,102.9,117.1,102.6 M117.4,103.5
	c-0.6,0.2-0.9,0.7-0.7,1.3c0.2,0.6,0.7,0.9,1.3,0.7c0.4-0.1,0.6-0.4,0.7-0.8c0.1-0.6-0.3-1.1-0.8-1.3
	C117.8,103.4,117.6,103.4,117.4,103.5 M120.4,102.6h2.3v0.9h-1.4v0.8h1.3l-0.2,0.9h-1c0,0.4,0,0.9,0,1.3h-1
	C120.5,105.1,120.5,103.9,120.4,102.6L120.4,102.6z"/>
</svg>
